<?xml version="1.0" standalone="no"?>
<!DOCTYPE svg PUBLIC "-//W3C//DTD SVG 20010904//EN"
 "http://www.w3.org/TR/2001/REC-SVG-20010904/DTD/svg10.dtd">
<svg version="1.0" xmlns="http://www.w3.org/2000/svg"
 width="1127.000000pt" height="1231.000000pt" viewBox="0 0 1127.000000 1231.000000"
 preserveAspectRatio="xMidYMid meet">

<g transform="translate(0.000000,1231.000000) scale(0.100000,-0.100000)"
fill="#000000" stroke="none">
<path d="M10 7075 l0 -2425 260 0 260 0 0 2425 0 2425 -260 0 -260 0 0 -2425z"/>
<path d="M1320 7075 l0 -2425 260 0 260 0 2 1987 3 1986 1490 -1986 1490
-1987 248 0 247 0 -2 2423 -3 2422 -255 0 -255 0 -5 -1982 -5 -1983 -656 873
c-361 479 -1033 1373 -1494 1985 l-838 1112 -243 0 -244 0 0 -2425z"/>
<path d="M6080 7075 l0 -2426 803 3 c787 4 804 4 926 27 348 64 658 187 927
366 164 110 258 187 396 326 383 387 620 885 684 1435 21 182 14 477 -15 649
-116 683 -484 1254 -1056 1637 -225 151 -555 293 -805 346 -259 56 -250 55
-1082 59 l-778 4 0 -2426z m1610 1881 c449 -72 803 -253 1100 -563 227 -235
378 -509 460 -834 171 -679 -27 -1400 -513 -1866 -296 -284 -674 -459 -1107
-513 -48 -5 -290 -10 -562 -10 l-478 0 0 1906 0 1906 498 -5 c400 -4 517 -8
602 -21z"/>
<path d="M10440 7075 l0 -2425 260 0 260 0 0 2425 0 2425 -260 0 -260 0 0
-2425z"/>
<path d="M6700 3874 c-74 -20 -125 -56 -161 -112 -59 -93 -64 -199 -13 -292
52 -96 138 -143 265 -143 65 -1 86 4 135 29 l59 29 3 113 3 112 -41 0 -40 0 0
-91 0 -90 -35 -15 c-75 -31 -180 -12 -238 44 -45 42 -60 81 -61 148 0 48 6 70
27 107 56 96 209 128 305 65 l40 -27 22 25 c23 24 23 24 4 45 -48 55 -178 80
-274 53z"/>
<path d="M8940 3874 c-138 -38 -220 -155 -207 -297 11 -120 95 -212 221 -244
76 -18 148 -9 226 30 l45 22 3 113 3 112 -41 0 -40 0 0 -91 0 -90 -35 -15
c-56 -23 -140 -18 -194 11 -144 79 -145 281 -1 359 45 25 60 28 119 24 53 -3
77 -10 108 -30 l41 -27 23 26 24 25 -33 27 c-60 51 -172 70 -262 45z"/>
<path d="M140 3605 l0 -275 45 0 45 0 0 275 0 275 -45 0 -45 0 0 -275z"/>
<path d="M450 3605 l0 -275 45 0 45 0 2 196 3 195 158 -195 c150 -186 160
-196 192 -196 l35 0 0 275 0 275 -45 0 -45 0 -2 -195 -3 -196 -158 196 c-150
186 -159 195 -192 195 l-35 0 0 -275z"/>
<path d="M1700 3605 l0 -275 40 0 40 0 0 191 c0 109 4 188 9 185 5 -3 48 -73
97 -156 72 -123 92 -150 111 -150 18 0 39 28 115 156 l93 156 3 -191 2 -191
40 0 40 0 0 275 0 275 -34 0 c-34 0 -36 -2 -142 -185 -60 -102 -112 -185 -115
-185 -4 0 -56 83 -116 185 l-108 184 -37 1 -38 0 0 -275z"/>
<path d="M2671 3858 c-5 -13 -61 -137 -124 -275 l-115 -253 43 0 42 0 32 70
31 70 141 0 141 0 31 -70 32 -70 42 0 c36 0 41 3 36 18 -4 9 -59 132 -123 272
l-115 255 -43 3 c-36 3 -43 0 -51 -20z m108 -195 c28 -65 51 -121 51 -125 0
-5 -50 -8 -111 -8 -96 0 -110 2 -105 15 27 72 102 235 107 235 3 0 29 -53 58
-117z"/>
<path d="M3150 3605 l0 -275 45 0 45 0 0 85 0 85 80 0 80 0 56 -81 c31 -44 63
-83 69 -86 7 -2 29 -3 48 -1 l35 3 -64 90 -64 90 34 17 c43 22 74 72 82 130
13 92 -41 177 -129 203 -34 10 -94 15 -184 15 l-133 0 0 -275z m289 192 c46
-16 76 -58 76 -106 0 -90 -48 -121 -184 -121 l-91 0 0 120 0 120 83 -1 c45 0
97 -5 116 -12z"/>
<path d="M3790 3605 l0 -275 40 0 40 0 0 73 0 73 49 48 48 48 104 -121 103
-121 49 0 49 0 -43 53 c-24 28 -79 94 -121 145 -43 51 -78 98 -78 104 0 5 50
62 111 127 l112 116 -44 3 -44 4 -147 -152 -148 -151 0 151 0 150 -40 0 -40 0
0 -275z"/>
<path d="M4410 3605 l0 -275 205 0 205 0 0 35 0 35 -160 0 -160 0 0 85 0 85
135 0 135 0 0 40 0 40 -135 0 -135 0 0 80 0 80 150 0 150 0 0 35 0 35 -195 0
-195 0 0 -275z"/>
<path d="M4920 3845 l0 -35 95 0 95 0 0 -240 0 -240 40 0 40 0 0 240 0 240 95
0 95 0 0 35 0 35 -230 0 -230 0 0 -35z"/>
<path d="M5530 3605 l0 -275 40 0 40 0 0 275 0 275 -40 0 -40 0 0 -275z"/>
<path d="M5840 3605 l0 -275 40 0 40 0 2 197 3 196 159 -196 c149 -186 160
-197 192 -197 l34 0 0 275 0 275 -40 0 -40 0 -2 -201 -3 -201 -160 201 c-149
187 -162 201 -192 201 l-33 0 0 -275z"/>
<path d="M7760 3605 l0 -277 158 4 c184 4 236 20 301 94 117 133 70 353 -91
425 -47 21 -71 24 -210 27 l-158 4 0 -277z m291 195 c95 -26 149 -97 149 -195
0 -71 -28 -127 -79 -162 -48 -33 -94 -43 -193 -43 l-88 0 0 205 0 205 88 0
c48 0 103 -5 123 -10z"/>
<path d="M8470 3605 l0 -275 40 0 40 0 0 275 0 275 -40 0 -40 0 0 -275z"/>
<path d="M9440 3605 l0 -275 45 0 45 0 0 275 0 275 -45 0 -45 0 0 -275z"/>
<path d="M9670 3845 l0 -35 95 0 95 0 0 -240 0 -240 40 0 40 0 0 240 0 240 95
0 95 0 0 35 0 35 -230 0 -230 0 0 -35z"/>
<path d="M10297 3623 c-64 -142 -119 -266 -123 -276 -6 -16 -2 -18 36 -15 43
3 44 4 71 68 l27 65 144 3 144 3 31 -71 31 -70 42 0 c23 0 40 4 38 10 -1 5
-57 129 -123 275 l-120 265 -41 0 -41 0 -116 -257z m212 46 c28 -65 51 -122
51 -128 0 -7 -37 -11 -111 -11 -85 0 -110 3 -106 13 17 43 110 247 112 245 1
-2 26 -55 54 -119z"/>
<path d="M10890 3605 l0 -275 185 0 185 0 0 35 0 35 -145 0 -145 0 0 240 0
240 -40 0 -40 0 0 -275z"/>
</g>
</svg>
